<?xml version="1.0" standalone="no"?>
<!DOCTYPE svg PUBLIC "-//W3C//DTD SVG 20010904//EN"
 "http://www.w3.org/TR/2001/REC-SVG-20010904/DTD/svg10.dtd">
<svg version="1.0" xmlns="http://www.w3.org/2000/svg"
 width="180.000000pt" height="180.000000pt" viewBox="0 0 180.000000 180.000000"
 preserveAspectRatio="xMidYMid meet">

<g transform="translate(0.000000,180.000000) scale(0.100000,-0.100000)"
fill="#000000" stroke="none">
<path d="M723 1785 c-7 -8 -30 -17 -50 -20 -54 -9 -174 -58 -238 -98 -112 -69
-242 -199 -302 -302 -52 -90 -94 -194 -100 -248 -3 -27 -12 -51 -19 -54 -11
-4 -14 -40 -14 -163 0 -90 4 -160 9 -162 6 -1 15 -25 22 -53 58 -248 234 -468
464 -583 86 -43 142 -64 188 -69 27 -3 51 -12 54 -19 4 -11 40 -14 163 -14 90
0 160 4 162 9 2 6 26 15 53 22 248 58 468 234 583 464 43 86 64 142 69 188 3
27 12 51 19 54 21 8 20 318 -1 339 -8 8 -17 31 -20 52 -7 39 -24 88 -58 162
-62 137 -211 301 -342 377 -90 52 -194 94 -248 100 -27 3 -51 12 -54 19 -8 21
-323 19 -340 -1z m387 -40 c200 -66 296 -122 411 -242 118 -122 180 -234 226
-403 25 -95 25 -323 -1 -405 -64 -203 -123 -302 -253 -425 -115 -109 -237
-175 -398 -217 -100 -26 -317 -25 -400 1 -203 64 -302 123 -425 252 -108 115
-176 238 -216 397 -27 102 -26 318 0 402 64 203 123 302 252 425 135 127 277
196 484 234 60 11 266 -1 320 -19z"/>
<path d="M826 1400 c-27 -5 -71 -22 -98 -39 -27 -17 -81 -42 -120 -55 -77 -27
-119 -60 -149 -118 -15 -30 -19 -59 -19 -142 l0 -104 -35 -31 c-30 -26 -35
-36 -35 -76 0 -40 5 -50 32 -73 17 -15 41 -32 52 -37 11 -6 35 -36 52 -67 18
-31 45 -73 60 -93 44 -58 172 -135 224 -135 11 0 20 -4 20 -10 0 -6 37 -10 90
-10 53 0 90 4 90 10 0 6 10 10 23 10 31 1 94 31 155 74 53 39 108 107 132 165
7 18 25 41 40 50 71 43 90 68 90 116 0 40 -5 50 -35 76 l-35 31 0 104 c0 83
-4 113 -19 142 -21 40 -122 142 -142 142 -7 0 -20 6 -28 13 -49 42 -245 74
-345 57z m261 -68 c110 -38 177 -94 214 -177 18 -42 21 -60 15 -124 -3 -41 -8
-76 -10 -78 -2 -2 -19 5 -37 15 -24 14 -71 23 -159 31 -166 15 -262 47 -330
108 -55 50 -75 50 -85 4 -6 -30 -77 -101 -100 -101 -6 0 -30 -14 -53 -31 -24
-17 -46 -28 -50 -24 -4 3 -7 48 -7 98 0 78 4 97 23 129 29 46 54 62 128 84 32
9 64 21 71 26 6 5 37 23 70 39 55 29 63 30 153 26 62 -2 116 -11 157 -25z
m-203 -339 c22 -8 102 -24 176 -34 192 -28 178 -20 206 -117 l24 -83 -30 -65
c-76 -166 -251 -256 -432 -224 -40 7 -92 24 -116 38 -98 56 -192 180 -192 252
0 43 31 152 49 174 9 10 34 27 55 38 22 11 57 38 78 59 l38 38 51 -30 c28 -16
70 -37 93 -46z m-424 -163 c0 -32 -19 -40 -39 -16 -15 18 -3 46 20 46 14 0 19
-7 19 -30z m924 14 c6 -17 -19 -54 -36 -54 -10 0 -11 54 -1 63 12 12 31 7 37
-9z"/>
<path d="M680 878 c-30 -32 -26 -70 10 -97 32 -23 40 -22 78 12 28 26 28 58
-1 85 -30 28 -61 28 -87 0z"/>
<path d="M1032 877 c-28 -30 -28 -58 1 -84 37 -34 45 -35 77 -12 37 28 40 66
7 97 -30 28 -58 28 -85 -1z"/>
<path d="M780 650 c0 -26 67 -60 120 -60 53 0 120 34 120 60 0 25 -20 25 -67
0 -21 -11 -44 -20 -51 -20 -7 0 -30 9 -52 20 -50 25 -70 25 -70 0z"/>
</g>
</svg>
