<?xml version="1.0" standalone="no"?>
<!DOCTYPE svg PUBLIC "-//W3C//DTD SVG 20010904//EN"
 "http://www.w3.org/TR/2001/REC-SVG-20010904/DTD/svg10.dtd">
<svg version="1.0" xmlns="http://www.w3.org/2000/svg"
 width="180.000000pt" height="180.000000pt" viewBox="0 0 180.000000 180.000000"
 preserveAspectRatio="xMidYMid meet">

<g transform="translate(0.000000,180.000000) scale(0.100000,-0.100000)"
fill="#000000" stroke="none">
<path d="M723 1785 c-7 -8 -30 -17 -50 -20 -54 -9 -174 -58 -238 -98 -112 -69
-242 -199 -302 -302 -52 -90 -94 -194 -100 -248 -3 -27 -12 -51 -19 -54 -11
-4 -14 -40 -14 -163 0 -90 4 -160 9 -162 6 -1 15 -25 22 -53 58 -248 234 -468
464 -583 86 -43 142 -64 188 -69 27 -3 51 -12 54 -19 4 -11 40 -14 163 -14 90
0 160 4 162 9 2 6 26 15 53 22 248 58 468 234 583 464 43 86 64 142 69 188 3
27 12 51 19 54 21 8 20 318 -1 339 -8 8 -17 31 -20 52 -7 39 -24 88 -58 162
-62 137 -211 301 -342 377 -90 52 -194 94 -248 100 -27 3 -51 12 -54 19 -8 21
-323 19 -340 -1z m387 -40 c200 -66 296 -122 411 -242 118 -122 180 -234 226
-403 25 -95 25 -323 -1 -405 -64 -203 -123 -302 -253 -425 -115 -109 -237
-175 -398 -217 -100 -26 -317 -25 -400 1 -203 64 -302 123 -425 252 -108 115
-176 238 -216 397 -27 102 -26 318 0 402 64 203 123 302 252 425 135 127 277
196 484 234 60 11 266 -1 320 -19z"/>
<path d="M851 1420 c-7 -22 -16 -30 -33 -30 -35 0 -121 -54 -163 -102 -20 -24
-50 -71 -67 -106 -22 -45 -42 -70 -69 -88 -45 -28 -59 -51 -59 -98 0 -39 38
-92 76 -106 13 -5 38 -33 57 -63 46 -71 76 -98 148 -133 33 -15 58 -33 56 -38
-2 -6 -22 -14 -44 -18 -97 -16 -195 -97 -225 -185 -34 -97 -39 -93 127 -93
122 0 145 2 145 15 0 12 -18 15 -99 15 -55 0 -106 3 -115 6 -40 15 7 112 77
157 56 37 132 50 266 46 103 -4 123 -7 173 -32 55 -27 92 -65 115 -119 21 -47
-2 -58 -118 -58 -81 0 -99 -3 -99 -15 0 -13 22 -15 140 -15 139 0 140 0 140
23 0 47 -36 122 -82 169 -49 51 -73 64 -151 82 -26 6 -49 16 -49 21 -1 6 21
21 48 35 80 40 111 67 144 125 18 31 44 62 58 69 57 30 82 62 82 108 0 52 -18
80 -71 114 -22 13 -39 32 -39 42 0 35 -63 118 -158 209 -97 92 -97 93 -149 93
-48 0 -52 -2 -62 -30z m127 -55 c31 -44 23 -83 -25 -125 -28 -25 -42 -30 -71
-28 -49 4 -54 30 -13 72 19 20 32 46 37 74 5 34 11 42 28 42 13 0 30 -14 44
-35z m-128 -34 c0 -13 -44 -48 -68 -56 -33 -10 -25 -42 21 -78 74 -61 181 -31
224 63 10 22 24 40 30 40 22 0 91 -98 115 -162 19 -53 27 -63 59 -76 75 -29
73 -109 -4 -134 -31 -10 -43 -20 -50 -43 -19 -59 -77 -116 -153 -152 -51 -23
-77 -41 -86 -61 -22 -46 -83 -39 -90 11 -2 15 -14 25 -38 32 -92 27 -147 74
-189 160 -13 26 -32 44 -62 59 -39 18 -44 25 -47 57 -3 38 6 50 60 78 22 11
35 27 43 56 27 91 99 177 177 209 31 13 58 12 58 -3z"/>
<path d="M721 1104 c-27 -35 -28 -84 -2 -84 12 0 23 11 30 30 11 33 28 39 38
13 12 -34 25 -44 39 -32 34 28 -7 99 -56 99 -19 0 -36 -9 -49 -26z"/>
<path d="M971 1104 c-24 -30 -27 -54 -9 -72 18 -18 25 -15 37 18 13 38 26 38
46 -1 10 -19 22 -29 33 -27 25 5 25 30 0 69 -32 46 -77 52 -107 13z"/>
<path d="M806 913 c-17 -17 -4 -45 29 -59 59 -24 135 -11 156 28 16 30 -3 44
-32 24 -29 -20 -81 -21 -118 -1 -16 8 -31 11 -35 8z"/>
</g>
</svg>
