<?xml version="1.0" standalone="no"?>
<!DOCTYPE svg PUBLIC "-//W3C//DTD SVG 20010904//EN"
 "http://www.w3.org/TR/2001/REC-SVG-20010904/DTD/svg10.dtd">
<svg version="1.0" xmlns="http://www.w3.org/2000/svg"
 width="180.000000pt" height="180.000000pt" viewBox="0 0 180.000000 180.000000"
 preserveAspectRatio="xMidYMid meet">

<g transform="translate(0.000000,180.000000) scale(0.100000,-0.100000)"
fill="#000000" stroke="none">
<path d="M723 1785 c-7 -8 -30 -17 -50 -20 -54 -9 -174 -58 -238 -98 -112 -69
-242 -199 -302 -302 -52 -90 -94 -194 -100 -248 -3 -27 -12 -51 -19 -54 -11
-4 -14 -40 -14 -163 0 -90 4 -160 9 -162 6 -1 15 -25 22 -53 58 -248 234 -468
464 -583 86 -43 142 -64 188 -69 27 -3 51 -12 54 -19 4 -11 40 -14 163 -14 90
0 160 4 162 9 2 6 26 15 53 22 248 58 468 234 583 464 43 86 64 142 69 188 3
27 12 51 19 54 21 8 20 318 -1 339 -8 8 -17 31 -20 52 -7 39 -24 88 -58 162
-62 137 -211 301 -342 377 -90 52 -194 94 -248 100 -27 3 -51 12 -54 19 -8 21
-323 19 -340 -1z m387 -40 c200 -66 296 -122 411 -242 118 -122 180 -234 226
-403 25 -95 25 -323 -1 -405 -64 -203 -123 -302 -253 -425 -115 -109 -237
-175 -398 -217 -100 -26 -317 -25 -400 1 -203 64 -302 123 -425 252 -108 115
-176 238 -216 397 -27 102 -26 318 0 402 64 203 123 302 252 425 135 127 277
196 484 234 60 11 266 -1 320 -19z"/>
<path d="M775 1381 c-161 -42 -298 -208 -321 -387 -5 -45 -11 -57 -33 -69 -61
-34 -71 -49 -71 -112 1 -57 1 -58 49 -96 39 -31 54 -52 76 -108 31 -79 74
-121 165 -160 52 -23 66 -24 260 -24 201 1 206 2 262 28 79 36 129 90 157 165
19 50 33 70 72 100 46 36 48 39 49 89 0 43 -5 57 -27 81 -16 16 -38 34 -50 41
-16 8 -23 24 -28 63 -22 164 -109 289 -255 364 -49 24 -67 28 -165 30 -60 2
-123 0 -140 -5z m267 -62 c106 -42 193 -137 228 -251 17 -55 20 -93 20 -232 0
-181 -9 -225 -59 -280 -62 -68 -214 -103 -400 -92 -172 11 -263 55 -307 150
-22 47 -24 63 -24 222 0 185 10 236 65 330 48 81 166 164 233 164 33 0 94 -21
117 -40 23 -19 55 -85 55 -114 0 -41 -40 -78 -83 -78 -47 0 -67 16 -67 54 0
22 7 33 30 46 34 19 36 25 16 41 -18 15 -59 0 -80 -31 -36 -51 -5 -129 64
-158 57 -24 142 27 165 99 11 37 -3 87 -40 136 -19 25 -35 47 -35 50 0 12 53
3 102 -16z m-591 -451 c8 -88 4 -118 -16 -118 -33 0 -48 86 -19 114 19 19 34
21 35 4z m923 -10 c27 -38 14 -108 -19 -108 -16 0 -17 3 -20 60 -4 70 11 88
39 48z"/>
<path d="M637 823 c-11 -11 -8 -48 5 -61 32 -32 80 8 58 48 -10 19 -49 27 -63
13z"/>
<path d="M1090 815 c-10 -12 -10 -21 -2 -40 21 -45 77 -23 70 27 -4 28 -48 37
-68 13z"/>
<path d="M742 688 c-50 -50 58 -178 151 -178 97 0 207 126 155 178 -17 17
-289 17 -306 0z m103 -48 c3 -5 17 -10 30 -10 13 0 27 5 30 10 3 6 26 10 51
10 36 0 44 -3 44 -18 0 -10 -12 -29 -26 -43 -37 -34 -121 -34 -158 0 -34 32
-34 61 -2 61 14 0 28 -4 31 -10z"/>
</g>
</svg>
