<?xml version="1.0" standalone="no"?>
<!DOCTYPE svg PUBLIC "-//W3C//DTD SVG 20010904//EN"
 "http://www.w3.org/TR/2001/REC-SVG-20010904/DTD/svg10.dtd">
<svg version="1.0" xmlns="http://www.w3.org/2000/svg"
 width="180.000000pt" height="180.000000pt" viewBox="0 0 180.000000 180.000000"
 preserveAspectRatio="xMidYMid meet">

<g transform="translate(0.000000,180.000000) scale(0.100000,-0.100000)"
fill="#000000" stroke="none">
<path d="M723 1785 c-7 -8 -30 -17 -50 -20 -54 -9 -174 -58 -238 -98 -112 -69
-242 -199 -302 -302 -52 -90 -94 -194 -100 -248 -3 -27 -12 -51 -19 -54 -11
-4 -14 -40 -14 -163 0 -90 4 -160 9 -162 6 -1 15 -25 22 -53 58 -248 234 -468
464 -583 86 -43 142 -64 188 -69 27 -3 51 -12 54 -19 4 -11 40 -14 163 -14 90
0 160 4 162 9 2 6 26 15 53 22 248 58 468 234 583 464 43 86 64 142 69 188 3
27 12 51 19 54 21 8 20 318 -1 339 -8 8 -17 31 -20 52 -7 39 -24 88 -58 162
-62 137 -211 301 -342 377 -90 52 -194 94 -248 100 -27 3 -51 12 -54 19 -8 21
-323 19 -340 -1z m387 -40 c200 -66 296 -122 411 -242 118 -122 180 -234 226
-403 25 -95 25 -323 -1 -405 -64 -203 -123 -302 -253 -425 -115 -109 -237
-175 -398 -217 -100 -26 -317 -25 -400 1 -203 64 -302 123 -425 252 -108 115
-176 238 -216 397 -27 102 -26 318 0 402 64 203 123 302 252 425 135 127 277
196 484 234 60 11 266 -1 320 -19z"/>
<path d="M836 1435 c-3 -8 -13 -15 -22 -15 -9 0 -30 -6 -47 -14 -62 -26 -142
-56 -152 -56 -6 -1 -28 -9 -50 -20 -22 -11 -44 -19 -50 -20 -5 0 -29 -8 -52
-17 l-43 -18 0 -217 c0 -133 4 -218 10 -218 5 0 14 -19 21 -42 6 -23 25 -72
42 -108 42 -87 196 -242 282 -285 33 -16 61 -33 63 -37 5 -11 112 -10 112 1 0
5 25 21 56 35 70 32 135 84 199 157 55 64 135 209 135 245 0 12 7 29 15 38 12
12 15 51 15 224 0 191 -2 210 -17 215 -10 3 -43 15 -73 26 -67 26 -80 26 -80
3 0 -13 17 -25 55 -41 31 -13 60 -32 67 -44 16 -30 4 -294 -17 -385 -40 -171
-180 -338 -348 -415 -54 -25 -80 -21 -161 20 -96 50 -212 166 -259 260 -51
100 -67 178 -74 350 -7 165 0 194 49 208 13 3 39 12 58 19 19 8 60 23 90 34
30 11 90 34 134 51 89 35 109 37 159 16 47 -20 77 -19 77 1 0 9 -17 22 -40 31
-22 9 -40 20 -40 25 0 4 -24 8 -54 8 -39 0 -55 -4 -60 -15z"/>
<path d="M815 1315 c-220 -82 -284 -113 -292 -144 -11 -46 6 -274 26 -344 24
-81 93 -189 160 -249 50 -45 157 -108 184 -108 34 0 146 68 204 125 66 65 115
145 145 240 21 66 35 267 24 329 -8 40 -21 48 -146 94 -30 11 -90 34 -134 51
-91 36 -92 36 -171 6z m131 -36 c27 -11 63 -27 81 -35 17 -8 37 -14 45 -14 7
0 22 -6 33 -14 11 -7 34 -16 50 -20 60 -15 65 -27 65 -163 0 -122 -13 -191
-53 -273 -17 -35 -80 -121 -108 -147 -36 -33 -140 -93 -162 -93 -32 0 -143 68
-184 113 -51 55 -90 122 -120 204 -20 55 -23 83 -23 193 0 157 -23 135 240
233 30 12 59 25 65 29 13 11 16 11 71 -13z"/>
<path d="M826 1189 c-32 -25 -56 -69 -56 -103 0 -16 -13 -37 -35 -57 l-35 -32
0 -122 c0 -118 1 -122 26 -146 23 -22 35 -24 141 -27 215 -7 223 0 223 174 0
100 -3 126 -16 136 -47 39 -54 50 -54 84 0 29 -8 44 -39 75 -33 34 -45 39 -83
39 -31 0 -54 -7 -72 -21z m119 -45 c27 -29 33 -72 13 -92 -15 -15 -92 -16
-119 -2 -35 19 -19 92 24 110 37 15 57 11 82 -16z m83 -156 c8 -8 12 -49 12
-119 0 -88 -3 -108 -16 -113 -23 -9 -247 -7 -261 2 -18 12 -20 222 -2 233 22
14 253 11 267 -3z"/>
<path d="M851 934 c-12 -15 -21 -31 -21 -37 0 -18 52 -87 65 -87 7 0 24 17 39
39 20 29 25 45 20 65 -12 50 -70 61 -103 20z"/>
</g>
</svg>
