<?xml version="1.0" standalone="no"?>
<!DOCTYPE svg PUBLIC "-//W3C//DTD SVG 20010904//EN"
 "http://www.w3.org/TR/2001/REC-SVG-20010904/DTD/svg10.dtd">
<svg version="1.0" xmlns="http://www.w3.org/2000/svg"
 width="180.000000pt" height="180.000000pt" viewBox="0 0 180.000000 180.000000"
 preserveAspectRatio="xMidYMid meet">

<g transform="translate(0.000000,180.000000) scale(0.100000,-0.100000)"
fill="#000000" stroke="none">
<path d="M723 1785 c-7 -8 -30 -17 -50 -20 -54 -9 -174 -58 -238 -98 -112 -69
-242 -199 -302 -302 -52 -90 -94 -194 -100 -248 -3 -27 -12 -51 -19 -54 -11
-4 -14 -40 -14 -163 0 -90 4 -160 9 -162 6 -1 15 -25 22 -53 58 -248 234 -468
464 -583 86 -43 142 -64 188 -69 27 -3 51 -12 54 -19 4 -11 40 -14 163 -14 90
0 160 4 162 9 2 6 26 15 53 22 248 58 468 234 583 464 43 86 64 142 69 188 3
27 12 51 19 54 21 8 20 318 -1 339 -8 8 -17 31 -20 52 -7 39 -24 88 -58 162
-62 137 -211 301 -342 377 -90 52 -194 94 -248 100 -27 3 -51 12 -54 19 -8 21
-323 19 -340 -1z m387 -40 c200 -66 296 -122 411 -242 118 -122 180 -234 226
-403 25 -95 25 -323 -1 -405 -64 -203 -123 -302 -253 -425 -115 -109 -237
-175 -398 -217 -100 -26 -317 -25 -400 1 -203 64 -302 123 -425 252 -108 115
-176 238 -216 397 -27 102 -26 318 0 402 64 203 123 302 252 425 135 127 277
196 484 234 60 11 266 -1 320 -19z"/>
<path d="M818 1441 c-1 -6 -36 -17 -76 -25 -39 -8 -84 -21 -100 -28 l-27 -13
0 -165 0 -165 37 -71 c44 -85 142 -181 211 -208 l46 -17 62 32 c78 42 169 141
200 218 18 47 23 81 27 213 l4 156 -32 17 c-17 9 -64 23 -103 31 -40 8 -73 19
-75 25 -2 5 -41 9 -87 9 -46 0 -85 -4 -87 -9z m206 -60 c39 -6 84 -20 100 -29
l31 -18 -2 -132 c-2 -130 -2 -133 -38 -207 -27 -55 -52 -89 -93 -125 -70 -63
-116 -79 -159 -56 -53 27 -139 113 -163 163 -13 26 -28 57 -34 68 -6 11 -12
78 -14 148 -5 151 0 160 87 177 31 6 72 15 91 20 40 10 96 7 194 -9z"/>
<path d="M815 1353 c-77 -19 -110 -35 -110 -53 0 -17 3 -17 110 5 68 14 92 14
158 4 104 -15 112 -28 104 -145 -5 -69 -12 -95 -38 -145 -35 -65 -103 -129
-137 -129 -35 0 -125 98 -150 164 -12 32 -22 68 -22 81 0 22 -22 40 -34 28 -3
-4 -6 -24 -6 -46 0 -81 94 -217 184 -264 39 -20 74 -4 143 64 81 81 95 117
101 253 4 107 3 117 -18 143 -14 18 -31 27 -49 27 -15 0 -50 7 -77 15 -58 17
-79 17 -159 -2z"/>
<path d="M700 1220 c0 -5 5 -10 10 -10 6 0 10 5 10 10 0 6 -4 10 -10 10 -5 0
-10 -4 -10 -10z"/>
<path d="M944 1175 c-71 -66 -77 -68 -109 -43 -22 17 -29 18 -35 8 -5 -8 -5
-21 0 -29 13 -24 50 -61 60 -61 21 0 170 138 170 157 0 26 -38 12 -86 -32z"/>
<path d="M504 1030 c-38 -15 -54 -56 -64 -163 -16 -179 -21 -160 85 -298 67
-86 95 -131 95 -150 0 -53 29 -82 44 -43 20 53 5 85 -115 235 -68 86 -69 88
-68 145 1 115 14 215 29 224 31 19 40 -9 40 -120 0 -100 2 -110 28 -148 35
-53 80 -102 91 -102 21 0 22 24 2 51 -28 38 -28 61 1 57 14 -2 41 -29 73 -72
l50 -69 3 -109 c3 -98 5 -108 23 -108 18 0 19 8 19 108 0 125 -10 152 -93 247
-48 55 -49 55 -100 53 l-52 -3 -2 115 c-1 111 -2 116 -28 137 -29 25 -31 26
-61 13z"/>
<path d="M1229 1014 c-9 -12 -16 -54 -19 -133 l-5 -116 -52 3 -52 3 -55 -67
c-80 -97 -86 -114 -86 -238 0 -97 2 -106 19 -106 17 0 19 10 23 103 3 96 6
107 35 153 41 63 80 104 98 104 19 0 19 -31 0 -56 -18 -24 -19 -54 -1 -54 7 0
29 19 48 43 66 83 68 87 68 205 0 114 8 139 41 122 14 -8 19 -30 25 -122 5
-62 7 -124 6 -137 -2 -13 -22 -48 -45 -78 -23 -31 -51 -68 -62 -83 -11 -15
-32 -43 -47 -61 -46 -58 -50 -139 -8 -139 17 0 20 7 20 40 0 34 9 52 61 118
33 42 76 100 96 129 l35 52 -7 131 c-6 110 -11 136 -29 163 -26 38 -83 50
-107 21z"/>
</g>
</svg>
